<svg width="2006" height="611" viewBox="0 0 2006 611" fill="none" xmlns="http://www.w3.org/2000/svg">
<path d="M83.4609 41.042L166.921 82.0908V569.814L83.4609 528.765V41.042Z" fill="url(#paint0_linear_4619_121)"></path>
<path d="M83.4609 41.042L166.921 82.0908V569.814L83.4609 528.765V41.042Z" fill="url(#paint1_linear_4619_121)"></path>
<path d="M83.4609 41.042L0.000411987 82.0908V569.814L83.4609 528.765V41.042Z" fill="url(#paint2_linear_4619_121)"></path>
<path d="M166.942 569.811L250.403 528.762V41.0385L166.942 82.0874V569.811Z" fill="url(#paint3_linear_4619_121)"></path>
<path d="M166.912 82.1025L83.4502 41.0518L166.912 0L250.381 41.0518L166.912 82.1025Z" fill="url(#paint4_linear_4619_121)"></path>
<path d="M83.4815 528.752L166.942 569.804L83.4814 610.855L0.0117229 569.804L83.4815 528.752Z" fill="url(#paint5_linear_4619_121)"></path>
<path d="M1765.99 167.576H1858.2C1879.65 167.576 1899.4 171.238 1917.45 178.563C1935.5 185.626 1951.06 195.304 1964.14 207.599C1977.22 219.894 1987.29 234.412 1994.36 251.153C2001.68 267.895 2005.34 285.814 2005.34 304.91C2005.34 324.006 2001.68 341.924 1994.36 358.666C1987.29 375.408 1977.22 389.926 1964.14 402.22C1951.06 414.515 1935.5 424.324 1917.45 431.649C1899.4 438.712 1879.65 442.243 1858.2 442.243H1765.99V167.576ZM1858.2 399.081C1873.37 399.081 1887.11 396.727 1899.4 392.018C1911.69 387.31 1922.16 380.901 1930.79 372.792C1939.68 364.421 1946.49 354.48 1951.19 342.971C1955.9 331.461 1958.26 318.774 1958.26 304.91C1958.26 291.307 1955.9 278.751 1951.19 267.241C1946.49 255.47 1939.68 245.529 1930.79 237.42C1922.16 229.049 1911.69 222.51 1899.4 217.801C1887.11 213.092 1873.37 210.738 1858.2 210.738H1811.11V399.081H1858.2Z" fill="#1A1A1A"></path>
<path d="M1546.51 167.576H1744.67V210.738H1591.64V281.367H1715.24V324.529H1591.64V399.081H1744.67V442.243H1546.51V167.576Z" fill="#1A1A1A"></path>
<path d="M1295.64 167.576H1360.39L1480.06 385.348H1483.99L1480.06 351.995V167.576H1525.19V442.243H1460.44L1340.77 224.471H1336.84L1340.77 257.824V442.243H1295.64V167.576Z" fill="#1A1A1A"></path>
<path d="M1112.95 450.09C1092.29 450.09 1072.93 446.558 1054.88 439.495C1037.09 432.171 1021.53 422.1 1008.18 409.282C995.105 396.203 984.773 380.9 977.187 363.373C969.601 345.585 965.808 326.097 965.808 304.909C965.808 283.72 969.601 264.363 977.187 246.836C984.773 229.048 995.105 213.745 1008.18 200.928C1021.53 187.848 1037.09 177.777 1054.88 170.714C1072.93 163.39 1092.29 159.728 1112.95 159.728C1127.08 159.728 1139.89 161.166 1151.4 164.044C1162.91 166.921 1173.25 170.714 1182.4 175.423C1191.56 180.131 1199.54 185.494 1206.34 191.51C1213.4 197.527 1219.42 203.674 1224.39 209.952C1236.16 224.601 1244.79 241.212 1250.28 259.785H1205.16C1200.45 249.321 1193.91 239.904 1185.54 231.533C1178.48 224.47 1169.06 217.931 1157.29 211.914C1145.52 205.898 1130.74 202.889 1112.95 202.889C1098.3 202.889 1084.83 205.375 1072.54 210.345C1060.24 215.315 1049.65 222.247 1040.75 231.141C1031.86 240.035 1024.93 250.76 1019.96 263.316C1015.25 275.872 1012.89 289.737 1012.89 304.909C1012.89 320.081 1015.25 333.945 1019.96 346.501C1024.93 359.057 1031.86 369.782 1040.75 378.676C1049.65 387.57 1060.24 394.502 1072.54 399.473C1084.83 404.443 1098.3 406.928 1112.95 406.928C1122.37 406.928 1131 406.012 1138.85 404.181C1146.7 402.35 1153.63 399.865 1159.64 396.726C1165.92 393.587 1171.42 390.055 1176.12 386.132C1180.83 381.946 1185.02 377.761 1188.68 373.575C1197.05 363.897 1203.2 352.779 1207.12 340.223H1158.07V297.061H1274.32V340.223H1252.25C1246.23 360.627 1237.2 378.938 1225.17 395.156C1219.94 401.958 1213.79 408.759 1206.73 415.56C1199.93 422.1 1191.82 427.986 1182.4 433.217C1173.25 438.187 1162.91 442.242 1151.4 445.381C1139.89 448.52 1127.08 450.09 1112.95 450.09Z" fill="#1A1A1A"></path>
<path d="M899.364 167.576H944.488V442.243H899.364V167.576Z" fill="#1A1A1A"></path>
<path d="M693.613 167.576H738.737V399.081H878.033V442.243H693.613V167.576Z" fill="#1A1A1A"></path>
<path d="M487.872 167.576H599.7L672.291 442.243H625.205L606.371 371.614H480.024L462.367 442.243H417.243L487.872 167.576ZM595.384 328.453L564.386 210.738H521.224L491.796 328.453H595.384Z" fill="#1A1A1A"></path>
<defs>
<linearGradient id="paint0_linear_4619_121" x1="125.191" y1="-143.468" x2="125.191" y2="791.431" gradientUnits="userSpaceOnUse">
<stop stop-color="#1DEF89"></stop>
<stop offset="0.485" stop-color="#1DEF89"></stop>
<stop offset="1" stop-color="#1DEF89"></stop>
</linearGradient>
<linearGradient id="paint1_linear_4619_121" x1="125.191" y1="-143.468" x2="125.191" y2="791.431" gradientUnits="userSpaceOnUse">
<stop stop-color="#1DEF89"></stop>
<stop offset="0.485" stop-color="#1DEF89"></stop>
<stop offset="1" stop-color="#1DEF89"></stop>
</linearGradient>
<linearGradient id="paint2_linear_4619_121" x1="41.7307" y1="-203.893" x2="41.7307" y2="650.03" gradientUnits="userSpaceOnUse">
<stop stop-color="white" stop-opacity="0"></stop>
<stop offset="1" stop-color="#1DEF89"></stop>
</linearGradient>
<linearGradient id="paint3_linear_4619_121" x1="208.673" y1="814.746" x2="208.673" y2="-39.1776" gradientUnits="userSpaceOnUse">
<stop stop-color="white" stop-opacity="0"></stop>
<stop offset="1" stop-color="#1DEF89"></stop>
</linearGradient>
<linearGradient id="paint4_linear_4619_121" x1="166.916" y1="-46.2995" x2="166.916" y2="101.53" gradientUnits="userSpaceOnUse">
<stop stop-color="white"></stop>
<stop offset="1" stop-color="#1DEF89"></stop>
</linearGradient>
<linearGradient id="paint5_linear_4619_121" x1="91.5432" y1="647.819" x2="85.5291" y2="528.648" gradientUnits="userSpaceOnUse">
<stop offset="0.0311887" stop-color="white"></stop>
<stop offset="1" stop-color="#1DEF89"></stop>
</linearGradient>
</defs>
</svg>
